<svg width="35" height="35" viewBox="0 0 35 35" fill="none" xmlns="http://www.w3.org/2000/svg">
<g clip-path="url(#clip0_35_1490)">
<path d="M17.3448 0C7.93304 0 0.275864 7.65718 0.275864 17.069C0.275864 26.4801 7.93304 34.1379 17.3448 34.1379C26.7559 34.1379 34.4138 26.4801 34.4138 17.069C34.4138 7.65718 26.7573 0 17.3448 0ZM21.5897 17.6699H18.8127V27.5678H14.6978V17.6699H12.7417V14.1717H14.6978V11.9089C14.6978 10.2884 15.4678 7.75618 18.8506 7.75618L21.8998 7.76787V11.1637H19.6866C19.3263 11.1637 18.8141 11.3438 18.8141 12.1166V14.1723H21.9493L21.5897 17.6699Z" fill="white"/>
</g>
<defs>
<clipPath id="clip0_35_1490">
<rect width="34.1379" height="34.1379" fill="white" transform="translate(0.275864)"/>
</clipPath>
</defs>
</svg>
