<svg width="35" height="35" viewBox="0 0 35 35" fill="none" xmlns="http://www.w3.org/2000/svg">
<g clip-path="url(#clip0_35_1485)">
<path d="M22.297 9.08203H12.1223C10.4983 9.08203 9.17699 10.4033 9.17699 12.0273V22.202C9.17699 23.826 10.4983 25.1477 12.1223 25.1477H22.297C23.921 25.1477 25.2426 23.8264 25.2426 22.202V12.0273C25.2426 10.4033 23.9214 9.08203 22.297 9.08203ZM17.2096 22.4036C14.2936 22.4036 11.9211 20.0311 11.9211 17.1147C11.9211 14.1987 14.2936 11.8261 17.2096 11.8261C20.126 11.8261 22.4985 14.1987 22.4985 17.1147C22.4985 20.0307 20.1256 22.4036 17.2096 22.4036ZM22.6685 12.9196C22.3367 12.9193 22.0186 12.7874 21.7839 12.5528C21.5493 12.3182 21.4173 12.0001 21.4169 11.6683C21.4173 11.3365 21.5493 11.0184 21.7839 10.7838C22.0186 10.5492 22.3367 10.4173 22.6685 10.417C23.0003 10.4174 23.3183 10.5494 23.5529 10.7839C23.7875 11.0185 23.9194 11.3366 23.9198 11.6683C23.9194 12 23.7875 12.3181 23.5529 12.5527C23.3183 12.7872 23.0003 12.9192 22.6685 12.9196Z" fill="white"/>
<path d="M17.2076 14.0615C15.5243 14.0615 14.1536 15.4315 14.1536 17.1148C14.1536 18.799 15.5243 20.1693 17.2076 20.1693C18.8917 20.1693 20.2613 18.799 20.2613 17.1148C20.2613 15.4319 18.8914 14.0615 17.2076 14.0615Z" fill="white"/>
<path d="M17.2069 0C7.78034 0 0.137932 7.64241 0.137932 17.069C0.137932 26.4955 7.78034 34.1379 17.2069 34.1379C26.6335 34.1379 34.2759 26.4955 34.2759 17.069C34.2759 7.64241 26.6335 0 17.2069 0ZM27.4744 22.2023C27.4744 25.059 25.1509 27.3825 22.2942 27.3825H12.1196C9.26326 27.3825 6.93943 25.059 6.93943 22.2023V12.0277C6.93943 9.17135 9.26326 6.84752 12.1196 6.84752H22.2942C25.1509 6.84752 27.4744 9.17135 27.4744 12.0277V22.2023Z" fill="white"/>
</g>
<defs>
<clipPath id="clip0_35_1485">
<rect width="34.1379" height="34.1379" fill="white" transform="translate(0.137932)"/>
</clipPath>
</defs>
</svg>
