<svg width="35" height="35" viewBox="0 0 35 35" fill="none" xmlns="http://www.w3.org/2000/svg">
<path d="M17.069 0C7.64263 0 0 7.64263 0 17.069C0 26.4953 7.64263 34.1379 17.069 34.1379C26.4953 34.1379 34.1379 26.4953 34.1379 17.069C34.1379 7.64052 26.4953 0 17.069 0ZM12.8017 25.3367H8.53448V10.4014H12.8017V25.3367ZM10.8004 9.48607C9.69515 9.48607 8.80119 8.58993 8.80119 7.48471C8.80119 6.37949 9.69733 5.48336 10.8004 5.48336C11.9056 5.48546 12.8017 6.3816 12.8017 7.48471C12.8017 8.58993 11.9056 9.48607 10.8004 9.48607ZM27.737 25.3367H23.4698V16.1024C23.4698 15.0207 23.1604 14.2633 21.8312 14.2633C19.6271 14.2633 19.2026 16.1024 19.2026 16.1024V25.3367H14.9353V10.4014H19.2026V11.8287C19.8127 11.3615 21.3361 10.4035 23.4698 10.4035C24.8524 10.4035 27.737 11.2313 27.737 16.2325V25.3367Z" fill="white"/>
</svg>
