<svg width="35" height="35" viewBox="0 0 35 35" fill="none" xmlns="http://www.w3.org/2000/svg">
<g clip-path="url(#clip0_35_1492)">
<path d="M17.4484 0C8.03815 0 0.413788 7.62437 0.413788 17.0346C0.413788 26.4449 8.03815 34.0692 17.4484 34.0692C26.8587 34.0692 34.483 26.4449 34.483 17.0346C34.5517 7.62437 26.8587 0 17.4484 0ZM25.8283 12.776C25.8283 12.982 25.8283 13.1194 25.8283 13.3255C25.8283 19.0266 21.501 25.6206 13.5332 25.6206C11.0604 25.6206 8.79372 24.9337 6.93915 23.6974C7.28259 23.766 7.62603 23.766 7.96947 23.766C9.96142 23.766 11.816 23.0792 13.3271 21.9115C11.4039 21.9115 9.82404 20.6064 9.27454 18.8892C9.54929 18.9579 9.82404 18.9579 10.0988 18.9579C10.5109 18.9579 10.8544 18.8892 11.2665 18.8205C9.27454 18.4084 7.83209 16.6912 7.83209 14.5619V14.4932C8.45028 14.8366 9.06847 15.0427 9.75535 15.0427C8.58766 14.2871 7.83209 12.982 7.83209 11.4709C7.83209 10.6466 8.03815 9.95976 8.45028 9.27288C10.5796 11.883 13.7393 13.6002 17.311 13.8063C17.2423 13.4628 17.1737 13.1881 17.1737 12.8447C17.1737 10.4406 19.0969 8.51731 21.501 8.51731C22.7374 8.51731 23.8364 9.06681 24.6606 9.89107C25.6223 9.68501 26.5839 9.34157 27.4082 8.86075C27.0647 9.89107 26.3778 10.7153 25.4849 11.2648C26.3778 11.1275 27.2021 10.9214 27.9577 10.5779C27.4082 11.4022 26.6526 12.1578 25.8283 12.776Z" fill="white"/>
</g>
<defs>
<clipPath id="clip0_35_1492">
<rect width="34.1379" height="34.1379" fill="white" transform="translate(0.413788)"/>
</clipPath>
</defs>
</svg>
